<?xml version="1.0" encoding="UTF-8"?>
<svg version="1.1" viewBox="0 0 1600 800" width="400" height="200" xmlns="http://www.w3.org/2000/svg">
<path transform="translate(0)" d="m0 0h1600v800h-1600z" fill="#FDFDFD"/>
<path transform="translate(1013,368)" d="m0 0h7l11 3 8 7 5 10 1 5 1 48 1 1 54 1 12 3 9 6 5 8 1 3v13l-12 77-4 16-6 8-8 5-13 2h-103l-10-2-11-8-5-10-1-7v-93l8-4 10-4 14-9 8-8 7-12 2-7 1-48 2-3z" fill="#323333"/>
<path transform="translate(1122,216)" d="m0 0h110l8 3 7 5 5 8 2 6v96l-4 4-16 7-11 7-10 10-7 14-1 4-1 46-2 4-2 1h-15l-8-3-5-4-5-8-3-10-1-48-52-1-14-3-9-6-4-5-3-8v-9l7-46 7-43 4-10 9-8 5-2z" fill="#323333"/>
<path transform="translate(505,225)" d="m0 0h111l8 3 7 8 2 4 1 6v88l-3 3-15 6-12 8-9 9-6 10-2 6-1 8v35l-1 7-2 1h-8l-10-3-7-7-3-8-1-6-1-46-1-2-55-1-9-2-6-3-5-5-3-5v-15l11-71 3-14 4-7 6-5z" fill="#FDFDFD"/>
<path transform="translate(407,373)" d="m0 0h13l8 3 6 7 3 8 2 54 59 1 10 3 8 7 2 6v10l-10 67-4 21-5 9-6 4-3 1-71 1h-38l-11-2-9-8-3-8v-93l12-5 16-9 11-11 6-10 2-8 1-46z" fill="#FDFDFD"/>
<path transform="translate(1261,220)" d="m0 0h51v122l-1 1h-47l-3-1z" fill="#323333"/>
<path transform="translate(896,457)" d="m0 0h50l1 1v116l-1 6h-50z" fill="#323333"/>
<path transform="translate(514,217)" d="m0 0h100l9 2 8 5 6 7 4 10 1 21v47l-1 31-26 13-9 7-8 11-3 6-1 5-1 44-2 5-5 3h-16l-9-4-8-7-5-10-2-13v-18l1-20h-47l-13-2-10-5-5-4-5-9-1-3v-15l12-78 4-13 4-6 7-6 7-3zm-9 8-9 3-7 8-3 10-11 72-1 6v15l5 8 6 4 5 2 7 1 55 1 1 2 1 46 3 12 7 8 6 3 5 1h8l2-1 1-7v-35l2-11 5-10 9-10 9-7 12-6 10-4 1-2v-88l-2-8-4-6-6-5-6-2z" fill="#121112"/>
<path transform="translate(408,365)" d="m0 0h11l11 4 8 7 6 12 1 6v44h52l12 3 9 6 6 8 2 7v11l-9 60-5 28-5 10-9 8-8 3h-116l-10-4-8-7-5-9-1-6v-88l1-8 3-3 17-7 12-8 7-7 5-8 2-6 1-12 1-39 5-4zm-1 8-1 2-1 46-3 10-7 10-9 9-16 9-12 5v93l3 8 9 8 11 2h44l65-1 8-4 5-7 3-12 11-72 1-7v-10l-3-7-7-6-10-3-59-1-2-54-4-9-5-6-8-3z" fill="#121112"/>
<path transform="translate(296,459)" d="m0 0h42v112l-41 1-1-1z" fill="#FDFDFD"/>
<path transform="translate(655,228)" d="m0 0h41v112l-8 1h-33l-1-1v-111z" fill="#FDFDFD"/>
<path transform="translate(289,452)" d="m0 0h55l1 1v125l-3 1h-53l-1-8v-114zm7 7v112l2 1 40-1v-112z" fill="#131213"/>
<path transform="translate(648,221)" d="m0 0h55v125l-3 2h-52l-1-1v-125zm7 7-1 1v111l1 1h38l3-1v-112z" fill="#0F0F10"/>
<path transform="translate(1122,216)" d="m0 0h110l4 1v2h-115l-11 2-5 2v-2l8-4z" fill="#1F1F20"/>
<path transform="translate(1310,293)" d="m0 0h1l1 49-1 1h-47l-2-1v-6l1 3 3 1 43 1-1-4 1-1z" fill="#181718"/>
<path transform="translate(1262,220)" d="m0 0h49v6l-1 1h-5l-3-3-7-1h-27l-4 1-1 3h-1z" fill="#151515"/>
<path transform="translate(897,458)" d="m0 0h49v6l-6-2-1-3h-41l-1 3z" fill="#0C0B0C"/>
<path transform="translate(1113,217)" d="m0 0h47v1l-39 1-11 2-5 2v-2z" fill="#131213"/>
<path transform="translate(1262,220)" d="m0 0 27 1v1l-21 1-4 1-1 3h-1z" fill="#0C0B0C"/>
</svg>
