<?xml version="1.0"?>
<svg width="2000" height="1422" xmlns="http://www.w3.org/2000/svg" xmlns:svg="http://www.w3.org/2000/svg" preserveAspectRatio="xMidYMid meet" version="1.0">
 <g class="layer">
  <title>Layer 1</title>
  <g fill="#000000" id="svg_1" transform="translate(0 1422) matrix(0.1 0 0 -0.1 0 0)">
   <path d="m11740,13411c-58,-9 -128,-30 -270,-81c-47,-17 -103,-37 -126,-45c-64,-21 -132,-58 -224,-123c-263,-187 -300,-214 -300,-222c0,-5 -28,-42 -62,-83c-35,-42 -79,-97 -98,-123c-19,-25 -48,-61 -65,-80c-16,-18 -56,-66 -88,-106c-32,-40 -76,-95 -98,-123c-21,-27 -39,-54 -39,-58c0,-5 -13,-25 -30,-44c-16,-18 -30,-43 -30,-54c0,-11 -10,-30 -23,-42c-13,-12 -31,-43 -41,-69c-10,-26 -21,-50 -26,-53c-5,-3 -20,-29 -35,-58c-14,-28 -39,-74 -54,-102c-16,-27 -40,-71 -54,-97c-13,-25 -34,-60 -46,-76c-11,-17 -21,-34 -21,-39c0,-5 -16,-33 -35,-63c-19,-30 -35,-62 -35,-71c0,-9 -10,-29 -22,-44c-29,-36 -70,-106 -101,-171c-14,-28 -30,-54 -36,-58c-6,-4 -17,-30 -26,-58c-8,-28 -24,-57 -35,-65c-11,-7 -24,-31 -30,-53c-6,-21 -21,-52 -34,-67c-13,-15 -27,-39 -31,-53c-4,-14 -18,-36 -30,-50c-13,-14 -27,-37 -30,-52c-4,-14 -16,-35 -27,-45c-11,-9 -26,-32 -33,-50c-13,-32 -64,-102 -96,-133c-8,-8 -35,-42 -60,-75c-24,-33 -67,-87 -95,-120c-28,-33 -57,-69 -65,-80c-21,-31 -159,-154 -228,-205c-34,-25 -74,-54 -89,-65c-102,-77 -207,-146 -267,-173c-38,-18 -83,-39 -98,-47c-32,-17 -156,-59 -201,-70c-50,-11 -615,-15 -731,-4c-64,5 -156,22 -220,40c-60,17 -139,37 -174,45c-35,8 -72,19 -83,25c-11,6 -43,17 -71,26c-29,8 -56,18 -62,23c-5,4 -28,13 -50,20c-53,16 -167,60 -180,70c-5,4 -53,22 -105,40c-52,18 -112,42 -132,52c-21,10 -45,18 -55,18c-10,0 -31,7 -48,16c-16,9 -59,22 -95,29c-36,7 -96,20 -135,29c-38,9 -92,16 -120,16c-27,0 -80,7 -118,15c-53,11 -96,12 -205,5c-321,-22 -298,-18 -403,-71c-160,-80 -309,-184 -309,-216c0,-7 -11,-25 -25,-39c-24,-24 -47,-63 -105,-174c-14,-26 -30,-54 -36,-61c-6,-8 -16,-54 -23,-104c-7,-49 -17,-108 -23,-130c-23,-86 -27,-284 -9,-433c21,-174 40,-273 60,-305c10,-18 24,-68 31,-112c6,-47 19,-91 31,-107c12,-17 22,-56 28,-107c6,-55 15,-89 31,-110c14,-20 27,-63 36,-118c7,-47 22,-111 33,-142c10,-31 22,-90 25,-131c5,-49 16,-93 32,-126c38,-78 56,-243 61,-559c2,-162 0,-284 -6,-305c-5,-19 -15,-98 -21,-175c-7,-85 -19,-162 -30,-195c-11,-30 -26,-96 -34,-145c-8,-50 -21,-108 -29,-130c-8,-22 -21,-82 -27,-134c-8,-59 -21,-110 -36,-140c-17,-33 -26,-74 -33,-146c-5,-55 -19,-127 -31,-160c-11,-33 -25,-94 -31,-135c-6,-41 -18,-86 -28,-100c-10,-14 -21,-48 -24,-75c-14,-119 -26,-183 -40,-220c-8,-22 -20,-85 -27,-140c-7,-55 -24,-134 -39,-175l-26,-75l0,-485l0,-485l32,-72c18,-39 33,-80 33,-91c0,-11 11,-33 24,-49c14,-16 28,-43 32,-59c3,-16 15,-39 26,-50c11,-12 26,-42 33,-68c8,-25 25,-61 39,-79c13,-17 28,-44 31,-60c4,-15 15,-33 25,-40c9,-6 24,-26 33,-42c22,-43 239,-213 361,-283c40,-23 196,-82 217,-82c5,0 29,-9 52,-19c23,-10 66,-22 96,-26c30,-4 70,-14 90,-23c29,-13 86,-16 286,-19c236,-4 1395,13 1590,23c50,3 209,7 354,10c240,5 275,4 385,-16c124,-21 153,-28 266,-60c126,-36 214,-69 326,-121c22,-10 43,-19 47,-19c4,0 73,-38 154,-84c82,-46 184,-102 228,-126c44,-23 94,-53 112,-66c17,-13 36,-24 41,-24c5,0 33,-17 63,-39c30,-21 72,-48 94,-60c44,-24 135,-81 246,-155c77,-50 91,-60 149,-101c80,-57 161,-112 216,-149c181,-120 233,-153 271,-176c24,-14 89,-56 146,-95c56,-38 110,-74 119,-80c8,-5 42,-28 74,-49c140,-93 194,-126 279,-171c50,-27 143,-77 208,-112c66,-34 121,-63 123,-63c3,0 35,-17 73,-39c72,-41 161,-74 251,-95c30,-8 77,-21 103,-30c26,-9 54,-16 63,-16c8,0 40,-9 72,-20c48,-18 91,-22 277,-27c343,-9 529,20 678,107c263,152 265,153 436,355c78,92 165,217 196,283c13,28 29,52 35,52c5,0 21,21 36,48c14,26 39,70 54,97c50,86 77,139 85,165c4,14 13,32 20,40c8,8 21,46 29,84c9,37 25,79 36,93c11,14 20,30 20,35c0,4 16,49 35,98c19,49 35,102 35,117c0,16 14,66 30,113c16,47 30,104 30,127c0,24 12,78 28,120l27,78l0,690c0,695 0,702 -35,845c-5,19 -13,65 -19,102c-6,37 -20,82 -31,101c-11,18 -26,66 -35,107c-8,41 -24,87 -35,101c-10,15 -22,44 -26,65c-3,22 -15,55 -24,74c-52,102 -90,191 -103,242c-8,31 -24,69 -35,85c-11,15 -27,44 -37,63c-27,58 -77,143 -123,210c-24,35 -54,84 -68,109c-13,25 -37,64 -54,86c-16,22 -39,60 -50,84c-11,24 -32,57 -45,73c-14,16 -25,35 -25,42c0,7 -13,33 -30,57c-16,24 -30,53 -30,65c0,12 -10,36 -23,55c-12,19 -32,52 -43,74c-66,130 -136,260 -154,282c-11,14 -20,31 -20,38c0,7 -15,41 -34,76c-18,35 -36,80 -40,100c-4,21 -16,49 -27,64c-12,14 -28,47 -35,72c-8,26 -21,54 -30,64c-14,15 -55,118 -85,214c-5,16 -9,49 -9,72c0,57 -19,180 -35,223c-7,19 -20,87 -30,150c-9,63 -21,131 -26,150c-12,42 -6,345 9,480c6,52 16,164 22,248c8,116 15,163 30,192c10,20 24,77 31,126c6,49 22,117 35,151c14,35 24,84 24,115c1,29 8,71 16,93c9,22 24,67 35,100c11,33 29,83 41,110c11,28 28,77 38,110c35,113 87,254 98,267c6,8 18,46 27,85c9,39 23,77 30,83c8,6 19,37 25,68c7,31 21,66 31,78c11,12 25,51 33,91c7,38 23,83 34,99c12,16 25,52 28,79c3,28 15,63 26,79c11,16 29,67 39,114c10,47 26,93 35,103c8,9 22,47 29,84c8,36 23,81 34,99c11,18 23,59 27,92c4,32 17,87 30,122c13,35 27,93 30,130c4,37 16,90 28,117c20,48 21,65 20,405c-1,207 -6,378 -12,410c-26,129 -51,223 -66,239c-9,10 -23,41 -32,70c-23,78 -135,281 -155,281c-7,0 -64,74 -100,130c-53,82 -240,256 -374,349c-33,22 -91,63 -130,91c-38,28 -77,53 -85,56c-8,4 -49,22 -90,42c-41,19 -100,43 -130,53c-30,10 -93,31 -140,48l-85,31l-270,4c-148,3 -295,1 -325,-3z" fill="#aeebba" id="svg_2" stroke="#aeebba"/>
  </g>
 </g>
</svg>