<?xml version="1.0"?>
<svg width="2000" height="1422" xmlns="http://www.w3.org/2000/svg" xmlns:svg="http://www.w3.org/2000/svg" preserveAspectRatio="xMidYMid meet" version="1.0">
 <g class="layer">
  <title>Layer 1</title>
  <g fill="#000000" id="svg_1" transform="translate(0 1422) matrix(0.1 0 0 -0.1 0 0)">
   <path d="m8395,12080c-49,-4 -117,-15 -150,-24c-33,-9 -89,-16 -125,-16c-60,-1 -244,-41 -390,-86c-30,-9 -92,-26 -137,-39c-46,-12 -88,-27 -95,-33c-7,-5 -31,-13 -53,-17c-22,-4 -49,-13 -61,-20c-11,-7 -41,-19 -65,-25c-24,-6 -66,-26 -94,-44c-27,-19 -84,-49 -125,-67c-73,-32 -168,-88 -220,-127c-14,-10 -61,-36 -105,-57c-74,-35 -264,-161 -326,-217c-15,-12 -57,-43 -95,-68c-37,-25 -80,-57 -95,-72c-14,-15 -62,-54 -106,-87c-104,-76 -463,-433 -463,-460c0,-5 -23,-33 -51,-62c-28,-29 -59,-69 -69,-89c-10,-19 -28,-44 -40,-55c-13,-11 -33,-36 -45,-55c-13,-19 -55,-71 -94,-115c-40,-44 -74,-91 -78,-104c-3,-14 -21,-45 -40,-69c-18,-24 -33,-49 -33,-55c0,-18 -50,-93 -141,-211c-16,-22 -32,-51 -36,-65c-3,-14 -21,-45 -40,-69c-18,-24 -33,-49 -33,-56c0,-8 -9,-25 -20,-39c-12,-14 -26,-41 -32,-59c-6,-18 -22,-46 -34,-61c-13,-15 -26,-44 -30,-65c-3,-20 -15,-47 -26,-58c-11,-12 -26,-43 -34,-70c-8,-26 -23,-57 -33,-68c-10,-12 -24,-43 -30,-71c-7,-27 -23,-69 -37,-92c-13,-23 -24,-49 -24,-59c0,-9 -13,-38 -29,-63c-16,-25 -32,-64 -36,-86c-3,-22 -17,-56 -30,-75c-14,-20 -28,-62 -34,-99c-6,-34 -20,-79 -31,-99c-12,-19 -26,-60 -32,-91c-5,-30 -18,-71 -28,-91c-9,-19 -23,-66 -29,-104c-7,-38 -19,-83 -28,-99c-14,-29 -29,-114 -38,-220c-3,-26 -14,-69 -25,-95c-16,-35 -25,-89 -36,-207c-7,-88 -17,-171 -21,-185c-3,-14 -8,-34 -9,-45c-2,-11 -8,-51 -14,-90c-16,-96 -8,-1285 8,-1335c6,-19 21,-80 32,-135c12,-55 30,-120 40,-145c10,-25 21,-67 25,-95c10,-70 84,-324 105,-360c10,-16 21,-54 25,-82c4,-29 16,-64 27,-78c11,-14 24,-42 30,-61c5,-20 20,-46 33,-58c13,-12 28,-42 35,-66c6,-25 20,-54 30,-65c10,-11 23,-38 29,-60c6,-22 22,-56 36,-75c14,-19 25,-39 25,-45c0,-6 16,-35 35,-65c19,-30 35,-62 35,-72c0,-9 11,-27 24,-40c14,-13 30,-35 35,-51c14,-37 132,-208 198,-285c29,-35 53,-68 53,-74c0,-12 73,-89 225,-236c60,-59 123,-121 140,-138c16,-17 71,-59 120,-94c50,-35 109,-80 131,-99c69,-60 188,-131 219,-131c6,0 41,-20 80,-45c38,-25 75,-45 81,-45c12,0 120,-54 139,-70c5,-4 28,-11 50,-15c22,-4 54,-16 71,-26c17,-11 40,-19 50,-19c11,0 57,-11 104,-25c175,-53 216,-64 265,-70c28,-4 59,-12 70,-18c25,-13 172,-37 190,-31c7,3 30,-2 51,-11c62,-26 289,-39 679,-40c397,0 609,13 910,55c39,5 97,10 130,10c33,0 88,7 122,15c34,8 110,19 169,25c59,5 142,16 183,25c42,8 121,20 176,26c156,18 224,27 300,39c39,5 102,15 140,20c39,6 95,14 125,19c30,5 80,10 110,10c30,1 98,10 150,21c157,32 338,59 465,70c66,5 149,17 185,25c36,8 106,17 155,21c50,4 99,11 109,17c26,13 344,44 642,62c132,8 278,19 325,25c46,6 318,15 604,21c1185,23 1625,40 1664,63c6,4 51,16 99,26c148,31 234,56 322,95c85,38 467,225 505,247c106,63 173,114 245,184c47,45 106,101 133,124c26,24 47,49 47,56c0,8 14,28 30,46c17,17 30,34 30,38c0,4 13,24 30,45c16,21 30,46 30,55c0,10 16,37 35,60c19,23 35,50 35,60c0,10 11,31 24,47c13,16 29,49 36,73c7,25 21,63 32,84c11,22 24,71 30,110c5,38 20,91 33,116c15,29 28,82 35,136c7,49 21,111 31,137c19,45 20,67 15,360c-2,172 -9,350 -14,397c-20,165 -41,285 -57,323c-8,21 -13,42 -10,47c3,5 1,19 -5,31c-7,12 -21,53 -32,92c-10,40 -24,77 -29,83c-5,7 -19,45 -30,85c-11,41 -27,81 -34,89c-8,9 -21,34 -29,56c-7,22 -36,88 -64,147c-28,58 -53,119 -57,135c-3,16 -17,40 -30,52c-14,13 -30,39 -36,59c-6,20 -19,45 -29,56c-10,11 -24,34 -33,50c-8,17 -24,39 -36,49c-12,11 -21,26 -21,35c0,9 -14,36 -30,61c-16,25 -35,60 -41,78c-6,17 -19,37 -29,42c-10,5 -21,23 -25,39c-3,17 -20,47 -36,67c-16,20 -29,40 -29,44c0,5 -16,27 -35,50c-19,23 -35,50 -35,61c0,10 -11,28 -24,41c-13,13 -56,61 -94,108c-39,47 -85,101 -102,120c-31,35 -43,50 -129,169c-24,34 -47,61 -52,61c-5,0 -16,14 -24,30c-9,17 -53,69 -98,116c-45,47 -87,96 -92,109c-10,22 -80,97 -237,252c-40,40 -119,118 -175,175c-101,101 -152,148 -223,205c-19,15 -47,39 -61,53c-14,14 -58,54 -98,90c-41,36 -112,100 -160,144c-47,43 -113,103 -146,133c-116,106 -261,228 -315,267c-30,22 -68,52 -85,68c-33,32 -139,118 -200,163c-61,46 -75,57 -119,95c-23,20 -81,65 -131,100c-49,35 -104,78 -121,95c-35,35 -206,155 -244,171c-14,6 -85,54 -158,105c-269,192 -316,224 -353,244c-20,11 -75,45 -121,75c-114,75 -112,74 -213,125c-49,25 -97,49 -105,54c-8,5 -44,21 -80,37c-36,15 -78,37 -95,49c-28,19 -147,79 -375,188c-222,106 -291,137 -308,137c-10,0 -51,16 -92,36c-70,34 -154,65 -260,99c-25,7 -76,26 -115,41c-38,14 -97,33 -130,42c-33,8 -76,21 -95,28c-19,7 -71,18 -115,24c-44,6 -97,18 -118,26c-20,7 -52,14 -71,14c-18,0 -61,9 -94,19c-34,11 -90,23 -124,27c-35,4 -85,15 -111,25c-26,11 -73,19 -105,19c-31,0 -100,9 -152,20c-76,16 -148,21 -360,24c-146,2 -305,1 -355,-4z" fill="#edd9b7" id="svg_2"/>
  </g>
 </g>
</svg>