<?xml version="1.0" encoding="UTF-8"?>
<svg version="1.1" viewBox="0 0 2048 512" width="800" height="200" xmlns="http://www.w3.org/2000/svg">
<path transform="translate(222,136)" d="m0 0 16 1 23 5 22 8 23 12 15 10 14 10 17 14 20 18 8 8 7 8 12 15 11 18 6 14 3 10 1 7v18l-4 16-7 11-9 8-16 8-12 3-20 1h-29l-27 2-61 9-26 3h-11l-17-2-16-4-14-7-10-8-7-7-9-13-8-16-4-14-2-9-1-10v-20l3-21 6-20 8-18 11-18 11-14 9-9 15-11 17-9 16-5z" fill="#222"/>
<path transform="translate(1761,106)" d="m0 0h13l8 4 6 7 6 12 7 20 7 11 9 7 13 4 9 1 23-1 25-3h20l10 3 9 5 5 5 4 5 3 8v7l-4 10-8 10-8 7-13 11-8 7-7 11-2 7v11l5 12 8 10 15 16 6 8 4 8 1 3v17l-4 11-9 10-5 4-8 4-8 2h-10l-13-4-14-5-11-2h-8l-10 2-8 4-7 8-11 17h-2v2l-6 3h-8l-8-5-5-10-4-20-3-17-5-9-6-4-6-2h-18l-10 4-11 7-15 11-12 6h-6l-5-5v-7l8-19 1-7v-11l-2-10-7-14-8-8-28-15-7-8-1-3v-9l4-8 7-6 13-5 13-2h27l24 1 10-2 6-4 6-7 3-12v-8l-6-34-1-9v-14l2-10 5-10 5-6 10-6z" fill="#222"/>
<path transform="translate(637,121)" d="m0 0 13 1 12 6 9 8 7 10 8 15 15 36 8 16 7 9 4 5 13 9 14 6 19 5 48 8 15 5 9 6 5 6 1 3v10l-4 9-7 8-9 8-15 10-15 9-15 8-21 7-21 3h-53l-20 3-15 5-16 8-25 13-19 10-14 3h-10l-13-4-9-7-8-10-6-13-5-19-1-7v-32l3-25 5-24 6-20 6-16 8-17 12-20 13-17 17-17 14-10 12-6 10-3z" fill="#222"/>
<path transform="translate(1105,101)" d="m0 0h14l12 4 11 8 8 10 4 9 1 5v17l-4 15-13 36-4 17-1 10v9l3 16 5 12 9 17 8 13 6 14 3 11 1 7v25l-4 17-5 12-7 11-5 6-9 6-8 2h-12l-13-4-15-8-36-24-16-9-9-3-5-1h-14l-15 1h-33l-13-4-9-7-7-14-1-5v-19l5-23 5-21 2-12v-12l-4-17-5-18-1-11 2-9 5-8 9-5 12-1 11 2 18 7 11 3h19l10-4 10-8 9-11 10-18 11-20 12-15 10-7z" fill="#222"/>
<path transform="translate(1419,112)" d="m0 0h10l13 4 9 8 4 7 2 8v16l-7 37-1 10v13l2 14 4 12 7 12 9 8 10 6 21 8 16 6 13 7 10 9 6 8 5 12 1 4v17l-4 13-7 9-11 7-12 3h-18l-22-5-22-6-11-2h-20l-11 3-9 6-6 7-12 22-5 4h-9l-7-6-5-11-6-17-7-11-8-5-3-1h-17l-10 5-17 13-9 4h-11l-5-3-3-5-1-4v-9l4-13 6-15 2-8v-7l-3-8-4-6-14-15-7-8-5-10-1-4v-11l4-10 7-9 8-6 7-3 9-2 37-3 12-3 11-7 9-10 9-14 17-29 12-16 10-10 12-7z" fill="#222"/>
</svg>
