<?xml version="1.0" encoding="UTF-8"?>
<svg version="1.1" viewBox="0 0 2000 1422" width="2000" height="1422" xmlns="http://www.w3.org/2000/svg">
<path transform="translate(0)" d="m0 0h2e3v1422h-2e3z" fill="#fff"/>
<path transform="translate(1094,106)" d="m0 0h44l53 16 11 9 15 14 8 7 5 4 16 28 4 13 5 20v73l-28 148-4 37v70l8 54 16 48 10 18 16 27 5 8 8 7 10 9 11 9 9 8 29 17 14 8 40 15 111 42 25 13 22 12 10 6 13 12 8 7 12 11 8 7 14 18 12 17 17 40 5 14 2 8v78l-16 52-14 18-11 14-6 7-44 28-18 5-32 8h-78l-92-21-71-19-22-6-44-8h-86l-44 12-16 10-22 15-12 13-9 11-6 8-13 24-13 23-17 32-6 10-11 10-10 8h-39l-11-10-11-9-7-6-18-39-8-21-20-57-15-24-11-17-5-7-20-12-13-8-9-3h-76l-40 20-18 14-12 9-17 13-21 16-16 8-25 11h-47l-20-12-6-9-8-14-3-12v-44l16-52 25-62 8-32v-34l-12-32-17-25-16-17-42-45-10-11-9-11-11-12-21-42-4-17v-47l17-42 12-15 10-13 8-10 21-16 13-9 27-12 36-8 18-2 134-11 13-2 44-11 19-12 25-16 13-13 7-8 11-12 7-8 10-15 16-25 11-17 15-25 15-26 13-22 17-29 15-25 16-21 14-19 16-21 7-8 40-40 26-15 22-13 18-5z" fill="#222"/>
</svg>
