<?xml version="1.0"?>
<svg width="2000" height="1422" xmlns="http://www.w3.org/2000/svg" xmlns:svg="http://www.w3.org/2000/svg" preserveAspectRatio="xMidYMid meet" version="1.0">
 <g class="layer">
  <title>Layer 1</title>
  <g fill="#000000" id="svg_1" transform="translate(0 1422) matrix(0.1 0 0 -0.1 0 0)">
   <path d="m8750,12634c-8,-2 -76,-8 -150,-13c-141,-11 -296,-41 -342,-67c-15,-8 -51,-19 -80,-24c-29,-4 -93,-27 -143,-50c-294,-137 -454,-217 -480,-239c-11,-9 -36,-24 -55,-33c-41,-18 -248,-165 -305,-217c-22,-20 -83,-65 -135,-101c-65,-45 -139,-110 -235,-209c-77,-80 -157,-161 -178,-180c-139,-129 -368,-370 -397,-419c-10,-16 -41,-54 -68,-83c-89,-96 -131,-150 -169,-213c-10,-16 -44,-58 -75,-93c-32,-34 -58,-67 -58,-72c0,-5 -15,-27 -32,-50c-59,-72 -96,-125 -112,-161c-22,-48 -58,-105 -83,-132c-11,-13 -25,-38 -31,-56c-6,-19 -22,-46 -34,-62c-50,-63 -87,-117 -102,-150c-23,-49 -59,-106 -83,-132c-12,-13 -25,-36 -29,-53c-3,-16 -17,-41 -29,-55c-13,-14 -48,-77 -78,-141c-30,-64 -60,-119 -66,-123c-6,-4 -11,-15 -11,-23c0,-9 -39,-100 -86,-202c-48,-102 -93,-204 -100,-226c-8,-21 -21,-46 -28,-55c-8,-8 -22,-42 -31,-75c-10,-33 -26,-70 -37,-82c-11,-11 -24,-41 -29,-65c-6,-23 -19,-53 -30,-64c-11,-12 -27,-48 -35,-80c-9,-32 -24,-74 -33,-94c-10,-19 -21,-55 -25,-79c-4,-24 -17,-62 -30,-85c-13,-22 -29,-72 -36,-111c-6,-38 -20,-89 -30,-111c-10,-23 -21,-57 -25,-75c-4,-19 -19,-59 -32,-89c-13,-30 -30,-87 -38,-127c-8,-39 -22,-91 -33,-115c-11,-23 -23,-68 -27,-98c-4,-30 -17,-71 -30,-90c-16,-24 -26,-62 -33,-122c-6,-48 -20,-104 -30,-125c-10,-21 -24,-80 -31,-132c-6,-51 -20,-110 -31,-132c-11,-21 -20,-51 -20,-66c-1,-43 -36,-235 -49,-263c-6,-14 -17,-89 -25,-166c-10,-99 -20,-153 -34,-181c-17,-32 -21,-68 -27,-213c-7,-173 -14,-237 -35,-335c-23,-105 -53,-553 -50,-745c2,-104 2,-255 1,-315c-1,-27 1,-196 4,-375c7,-371 26,-578 63,-685c6,-16 13,-61 17,-100c4,-48 12,-76 25,-90c21,-22 39,-91 40,-148c0,-21 8,-59 19,-85c10,-26 24,-80 30,-121c8,-52 20,-88 41,-120c17,-24 30,-55 30,-69c0,-14 13,-48 29,-76c16,-28 34,-69 41,-91c7,-22 21,-48 31,-58c10,-10 22,-36 25,-58c4,-23 17,-52 30,-66c12,-13 25,-37 29,-52c3,-15 19,-42 35,-60c17,-18 30,-36 30,-41c0,-13 125,-163 233,-281c47,-51 196,-179 291,-250c79,-59 265,-148 336,-161c30,-5 62,-16 71,-24c9,-8 39,-18 67,-23c28,-4 58,-14 67,-21c34,-28 459,-38 610,-14c55,9 109,16 120,16c11,1 49,10 85,21c36,11 88,23 115,27c28,5 77,18 110,29c81,29 310,138 360,171c22,15 71,41 110,59c38,18 92,47 120,65c27,18 84,48 125,66c41,19 84,42 95,52c11,9 83,47 160,84c77,36 154,76 170,88c17,12 86,48 155,81c69,32 139,68 155,81c30,22 259,134 274,134c5,0 15,8 22,17c13,15 244,131 422,212c38,16 82,42 98,56c17,14 34,25 39,25c4,0 64,26 132,59c67,32 148,64 178,71c30,6 73,21 96,31c22,10 48,19 58,19c9,0 30,7 47,15c16,9 73,27 127,40c53,14 117,33 142,44c25,10 86,24 135,30c50,7 115,18 145,26c30,7 96,16 145,19c50,4 115,13 145,21c30,8 75,15 100,15c25,0 61,5 80,11c24,8 268,15 775,21c1690,20 1780,22 1885,46c52,11 131,24 175,27c44,4 107,12 140,20c33,7 87,16 120,20c33,4 71,13 85,21c14,7 52,20 85,28c33,8 146,45 250,81c105,36 222,74 260,84c39,10 84,25 102,34c18,9 39,17 48,17c28,0 323,141 388,186c27,19 55,34 62,34c6,0 43,20 81,45c37,25 73,45 80,45c7,0 36,16 65,36c30,20 68,43 84,50c17,8 53,28 80,44c28,16 65,37 83,45c18,9 51,29 72,44c22,16 54,34 72,41c18,7 42,21 53,31c11,9 43,29 70,44c28,15 68,40 90,56c80,58 127,90 164,109c21,10 92,57 159,104c66,46 134,92 151,101c17,8 49,28 70,43c21,15 66,46 100,70c34,23 88,68 119,100c63,61 85,81 147,126c22,16 46,37 55,47c32,38 187,205 216,234c18,17 39,45 47,61c8,16 34,47 56,68c28,27 45,56 56,92c8,28 22,57 30,64c8,7 22,38 31,69c8,31 20,67 26,81c23,52 31,121 35,292c3,149 1,183 -13,215c-9,21 -24,59 -34,85c-12,32 -48,81 -106,143c-78,85 -131,128 -318,261c-61,43 -336,174 -366,174c-7,0 -26,7 -43,14c-44,21 -144,55 -192,67c-22,6 -67,19 -100,29c-33,10 -85,21 -115,25c-30,3 -81,13 -114,21c-32,8 -96,19 -141,25c-45,5 -98,15 -116,23c-19,7 -68,16 -110,19c-42,4 -101,13 -132,21c-31,8 -89,18 -129,21c-40,4 -90,13 -111,21c-21,8 -89,18 -150,24c-62,5 -125,15 -142,23c-16,8 -70,18 -120,22c-49,3 -103,13 -118,20c-16,8 -65,19 -110,25c-45,7 -106,18 -137,25c-30,7 -95,16 -144,20c-49,3 -101,12 -116,20c-14,7 -59,18 -99,23c-39,6 -78,15 -84,20c-7,6 -38,15 -70,21c-32,6 -63,13 -69,17c-5,3 -53,17 -106,30c-173,42 -186,45 -232,60c-25,9 -65,19 -90,24c-54,10 -81,20 -160,59c-33,17 -76,33 -95,37c-20,3 -38,10 -41,15c-6,11 -147,79 -163,79c-21,0 -276,135 -349,185c-40,27 -92,60 -115,73c-23,13 -60,41 -83,61c-22,21 -54,47 -70,56c-47,30 -154,137 -174,175c-10,19 -41,59 -69,88c-28,29 -51,57 -51,62c0,4 -16,27 -35,50c-19,23 -35,46 -35,51c0,5 -25,35 -56,68c-62,66 -107,133 -131,195c-9,22 -38,74 -65,115c-26,41 -51,89 -54,107c-3,18 -12,38 -20,45c-7,6 -23,36 -34,67c-12,30 -30,68 -40,83c-11,15 -20,30 -20,34c0,3 -13,32 -29,64c-15,32 -34,75 -41,97c-7,21 -23,55 -36,74c-13,19 -28,56 -33,82c-6,26 -34,95 -62,155c-27,59 -57,132 -65,162c-7,30 -22,62 -32,72c-11,9 -25,39 -31,66c-7,26 -35,95 -62,152c-27,57 -52,115 -55,130c-4,14 -17,42 -29,61c-13,19 -30,63 -39,98c-9,34 -22,72 -30,85c-7,12 -19,40 -26,62c-7,22 -22,53 -32,68c-11,15 -24,44 -30,64c-5,20 -20,52 -33,72c-13,20 -27,50 -31,66c-4,17 -15,41 -24,55c-10,14 -43,81 -75,150c-31,69 -66,134 -76,145c-10,12 -22,35 -25,52c-3,18 -15,40 -26,50c-11,10 -26,33 -34,52c-8,19 -30,58 -50,85c-46,67 -79,114 -104,151c-63,92 -98,141 -121,169c-14,17 -33,45 -42,61c-14,28 -194,202 -241,234c-12,8 -42,33 -67,57c-25,23 -63,53 -85,67c-21,15 -57,39 -79,54c-22,16 -69,44 -105,62c-100,52 -174,92 -185,101c-5,4 -26,11 -45,15c-19,4 -46,14 -59,22c-34,22 -496,52 -561,37z" fill="#bae1f0" id="svg_2"/>
  </g>
 </g>
</svg>